<?xml version="1.0" encoding="UTF-8"?>
<svg id="Layer_1" data-name="Layer 1" xmlns="http://www.w3.org/2000/svg" viewBox="0 0 1080 1080">
  <defs>
    <style>
      .cls-1 {
        fill: #f6f6f6;
      }

      .cls-2 {
        fill: #3e547d;
      }

      .cls-3 {
        fill: #092354;
      }
    </style>
  </defs>
  <path class="cls-3" d="M616.61,732.39l7.21,145.11s-6.44,82.21-90.76,81.15c-42.19-.58-64.34-19.8-75.97-38.87-11.63-19.08-12.69-38.01-12.69-38.01l8.31-150.35C208.58,708.75,22.68,592.28,22.68,452.03c0-77.55,56.84-147.85,148.9-198.97-46.85,39.54-74.19,87.02-74.19,138.05,0,137.71,198.63,249.33,443.68,249.33s443.64-111.62,443.64-249.33c0-49.54-25.75-95.76-70.1-134.54,88.41,50.84,142.71,119.69,142.71,195.46,0,142.27-191.28,260.04-440.71,280.37Z"/>
  <path class="cls-3" d="M746.67,229.36s23.87,120.74-48.68,155.67c0,0,105.77,60.76,105.38,172.43l83.29-59.79s-17.08-46.98-72.61-70.47c0,0,77.95-69.4,34.17-140.94-43.78-71.54-101.54-56.89-101.54-56.89Z"/>
  <path class="cls-2" d="M434.28,403.2s-130.8,88.82-107.3,174.24l182.59,36.3,2.14-140.94-13.88-19.22v-22.42h70.47v21.89s-11.68,19.22-11.68,19.22l-.06,141.48,190.06-39.51s6.6-99.5-115.12-171.04l.16-24.36s67.99-85.42,31.68-171.91c-36.3-86.49-124.93-85.42-124.93-85.42,0,0-79.01-7.47-128.13,73.68s24.56,183.65,24.56,183.65l-.54,24.36Z"/>
  <polygon class="cls-1" points="511.7 472.81 556.61 472.27 556.6 487.09 511.7 487.09 511.7 472.81"/>
  <path class="cls-1" d="M474.3,162.48c-10.04,4.19-34.68,17.36-43.13,48.15,0,0-2.3,9.95,6.12,6.89s9.95-31.38,41.33-43.63c0,0,13.4-6.14,5.86-10.8-3.06-1.89-6.88-2-10.19-.61Z"/>
  <path class="cls-1" d="M541.26,933.21c11.83-.17,38.85-3.51,55.25-28.85,7.09-10.96,10.23-24.02,10.03-37.07l-.94-60.17c-.02-.96-1.44-1.02-1.5-.06-1.71,25.74-4.51,59.7-8.76,74.93s-16.5,40.35-54.23,49.74c-.86.21-.74,1.48.15,1.47Z"/>
  <path class="cls-3" d="M317.9,229.36s-23.87,120.74,48.68,155.67c0,0-105.77,60.76-105.38,172.43l-83.29-59.79s17.08-46.98,72.61-70.47c0,0-77.95-69.4-34.17-140.94,43.78-71.54,101.54-56.89,101.54-56.89Z"/>
</svg>